<svg 
 xmlns="http://www.w3.org/2000/svg"
 xmlns:xlink="http://www.w3.org/1999/xlink"
 width="13px" height="22px">
<path fill-rule="evenodd"  fill="rgb(255, 255, 255)"
 d="M6.336,-0.000 C4.581,-0.000 3.086,0.611 1.851,1.833 C0.617,3.054 -0.000,4.531 -0.000,6.260 C-0.000,7.304 0.528,9.048 1.584,11.491 C2.640,13.935 3.696,16.159 4.752,18.164 C5.808,20.168 6.336,21.143 6.336,21.088 C6.501,20.786 6.727,20.374 7.015,19.852 C7.303,19.331 7.810,18.349 8.537,16.907 C9.264,15.466 9.902,14.141 10.450,12.933 C10.999,11.725 11.506,10.475 11.973,9.185 C12.439,7.894 12.672,6.919 12.672,6.260 C12.672,4.531 12.055,3.054 10.821,1.833 C9.586,0.611 8.091,-0.000 6.336,-0.000 L6.336,-0.000 ZM6.315,8.155 C5.781,8.155 5.321,7.963 4.937,7.578 C4.553,7.194 4.361,6.734 4.361,6.198 C4.361,5.663 4.553,5.210 4.937,4.840 C5.321,4.469 5.781,4.284 6.315,4.284 C6.850,4.284 7.310,4.469 7.694,4.840 C8.078,5.210 8.270,5.663 8.270,6.198 C8.270,6.734 8.078,7.194 7.694,7.578 C7.310,7.963 6.850,8.155 6.315,8.155 Z"/>
</svg>