<svg 
 xmlns="http://www.w3.org/2000/svg"
 xmlns:xlink="http://www.w3.org/1999/xlink"
 width="19px" height="19px">
<path fill-rule="evenodd"  fill="rgb(255, 255, 255)"
 d="M17.568,18.932 L2.558,18.932 L0.964,18.932 L0.964,2.695 L3.810,2.727 L3.810,3.353 C3.810,4.387 4.649,5.231 5.685,5.231 C6.721,5.231 7.562,4.388 7.562,3.354 L7.562,2.727 L12.567,2.727 L12.567,3.354 C12.567,4.388 13.406,5.231 14.443,5.231 C15.479,5.231 16.319,4.388 16.319,3.354 L16.319,2.727 L18.942,2.727 L18.960,18.928 L17.568,18.932 ZM16.997,7.106 L2.986,7.106 L2.986,16.970 L16.997,16.970 L16.997,7.106 ZM6.403,13.076 L4.434,13.076 L4.434,11.337 L6.403,11.337 L6.403,13.076 ZM6.403,16.023 L4.434,16.023 L4.434,14.284 L6.403,14.284 L6.403,16.023 ZM9.536,10.188 L7.566,10.188 L7.566,8.449 L9.536,8.449 L9.536,10.188 ZM9.536,13.076 L7.566,13.076 L7.566,11.337 L9.536,11.337 L9.536,13.076 ZM9.536,16.023 L7.566,16.023 L7.566,14.284 L9.536,14.284 L9.536,16.023 ZM12.726,10.188 L10.753,10.188 L10.753,8.449 L12.726,8.449 L12.726,10.188 ZM12.726,13.076 L10.753,13.076 L10.753,11.337 L12.726,11.337 L12.726,13.076 ZM12.726,16.023 L10.753,16.023 L10.753,14.284 L12.726,14.284 L12.726,16.023 ZM15.679,10.188 L13.709,10.188 L13.709,8.449 L15.679,8.449 L15.679,10.188 ZM15.679,13.076 L13.709,13.076 L13.709,11.337 L15.679,11.337 L15.679,13.076 ZM15.679,16.023 L13.709,16.023 L13.709,14.284 L15.679,14.284 L15.679,16.023 ZM14.421,4.345 C13.741,4.345 13.190,3.797 13.190,3.115 L13.190,1.827 C13.190,1.145 13.741,0.595 14.421,0.595 C15.103,0.595 15.655,1.145 15.655,1.827 L15.655,3.115 C15.655,3.797 15.103,4.345 14.421,4.345 ZM5.665,4.345 C4.985,4.345 4.434,3.797 4.434,3.115 L4.434,1.827 C4.434,1.145 4.985,0.595 5.665,0.595 C6.348,0.595 6.897,1.145 6.897,1.827 L6.897,3.115 C6.897,3.797 6.347,4.345 5.665,4.345 Z"/>
</svg>