<svg 
 xmlns="http://www.w3.org/2000/svg"
 xmlns:xlink="http://www.w3.org/1999/xlink"
 width="22px" height="22px">
<path fill-rule="evenodd"  fill="rgb(255, 255, 255)"
 d="M5.233,-0.000 C5.098,-0.000 4.979,0.051 4.877,0.152 C4.776,0.254 4.058,0.381 4.058,0.533 L4.058,8.891 L1.042,8.891 C0.754,8.891 0.508,8.993 0.305,9.196 C0.102,9.399 -0.000,9.653 -0.000,9.958 L-0.000,18.316 C-0.000,18.621 0.106,18.883 0.318,19.103 C0.529,19.323 0.771,19.408 1.042,19.357 C1.346,19.290 1.634,19.391 1.905,19.662 C2.176,19.933 2.384,20.242 2.528,20.589 C2.672,20.937 2.837,21.212 3.023,21.415 C3.209,21.618 3.387,21.635 3.556,21.466 L3.556,19.357 L4.725,19.357 L4.725,21.466 C4.725,21.601 4.776,21.724 4.877,21.834 C4.979,21.944 5.098,21.999 5.233,21.999 L16.766,21.999 C16.902,21.999 17.020,21.944 17.122,21.834 C17.223,21.724 17.274,21.601 17.274,21.466 L17.274,19.357 L18.494,19.357 L18.494,21.466 C18.799,21.432 19.053,21.296 19.256,21.059 C19.459,20.822 19.603,20.572 19.688,20.310 C19.772,20.047 19.921,19.819 20.132,19.624 C20.344,19.429 20.619,19.340 20.958,19.357 C21.229,19.391 21.470,19.302 21.682,19.091 C21.893,18.879 21.999,18.621 21.999,18.316 L21.999,9.958 C21.999,9.653 21.898,9.399 21.695,9.196 C21.491,8.993 21.246,8.891 20.958,8.891 L17.941,8.891 L17.941,0.533 C17.941,0.381 17.890,0.254 17.789,0.152 C17.687,0.051 17.568,-0.000 17.433,-0.000 L4.566,-0.000 L5.233,-0.000 ZM5.919,1.922 L16.080,1.922 L16.080,11.084 L5.919,11.084 L5.919,1.922 ZM19.408,11.254 C19.662,11.254 19.878,11.343 20.056,11.520 C20.234,11.698 20.323,11.914 20.323,12.168 C20.323,12.422 20.234,12.638 20.056,12.816 C19.878,12.993 19.662,13.083 19.408,13.083 C19.154,13.083 18.938,12.993 18.760,12.816 C18.583,12.638 18.494,12.422 18.494,12.168 C18.494,11.914 18.583,11.698 18.760,11.520 C18.938,11.343 19.154,11.254 19.408,11.254 ZM5.919,17.006 L16.080,17.006 L16.080,19.896 L5.919,19.896 L5.919,17.006 Z"/>
</svg>