<svg 
 xmlns="http://www.w3.org/2000/svg"
 xmlns:xlink="http://www.w3.org/1999/xlink"
 width="13px" height="23px">
<path fill-rule="evenodd"  fill="rgb(255, 255, 255)"
 d="M11.464,0.946 L1.570,0.946 C0.735,0.946 0.061,1.623 0.061,2.457 L0.061,20.511 C0.061,21.344 0.735,22.020 1.570,22.020 L11.464,22.020 C12.297,22.020 12.972,21.344 12.972,20.511 L12.972,2.457 C12.972,1.623 12.297,0.946 11.464,0.946 ZM4.447,2.197 L8.755,2.197 C8.864,2.197 8.952,2.359 8.952,2.560 C8.952,2.762 8.864,2.925 8.755,2.925 L4.447,2.925 C4.337,2.925 4.250,2.762 4.250,2.560 C4.250,2.359 4.337,2.197 4.447,2.197 ZM6.601,20.529 C6.069,20.529 5.637,20.097 5.637,19.565 C5.637,19.033 6.069,18.602 6.601,18.602 C7.131,18.602 7.563,19.033 7.563,19.565 C7.563,20.097 7.131,20.529 6.601,20.529 ZM11.008,16.894 L2.026,16.894 L2.026,3.996 L11.008,3.996 L11.008,16.894 Z"/>
</svg>