<svg width="0" height="0" class="hidden">
  <symbol xmlns="http://www.w3.org/2000/svg" xmlns:xlink="http://www.w3.org/1999/xlink" viewBox="0 0 230px 250px" id="hexagon">
    <defs>
      <filter filterUnits="userSpaceOnUse" id="Filter_0" x="1.5px" y="1.5px" width="227px" height="247px">
        <feOffset in="SourceAlpha" dx="0" dy="0"></feOffset>
        <feGaussianBlur result="blurOut" stdDeviation="1"></feGaussianBlur>
        <feFlood flood-color="rgb(0, 0, 0)" result="floodOut"></feFlood>
        <feComposite operator="atop" in="floodOut" in2="blurOut"></feComposite>
        <feComponentTransfer>
          <feFuncA type="linear" slope="0.4"></feFuncA>
        </feComponentTransfer>
        <feMerge>
          <feMergeNode></feMergeNode>
          <feMergeNode in="SourceGraphic"></feMergeNode>
        </feMerge>
      </filter>
    </defs>
    <g filter="url(#Filter_0)">
      <path fill-rule="evenodd" stroke-width="3px" stroke="rgb(255, 255, 255)" d="M115.130,6.533 L222.990,61.528 L222.990,191.572 L115.777,243.332 L6.925,190.925 L6.666,60.880 L115.130,6.533 Z"></path>
    </g>
  </symbol>
  <symbol xmlns="http://www.w3.org/2000/svg" xmlns:xlink="http://www.w3.org/1999/xlink" viewBox="0 0 131px 92px" id="heart">
    <path fill-rule="evenodd" stroke-width="1px" d="M52.214,24.622 C48.638,20.306 42.235,19.095 37.392,21.757 C33.624,23.863 31.266,27.853 31.266,32.189 C31.266,33.621 30.115,34.790 28.683,34.790 C27.245,34.790 26.094,33.621 26.094,32.189 C26.094,25.968 29.465,20.222 34.894,17.204 C41.859,13.348 51.061,15.086 56.183,21.291 C57.098,22.399 56.953,24.036 55.855,24.948 C54.756,25.865 53.120,25.727 52.214,24.622 ZM126.964,50.576 C126.964,52.013 125.807,53.172 124.371,53.172 L104.142,53.172 C91.808,70.441 65.781,87.036 64.423,87.902 C63.998,88.163 63.528,88.298 63.048,88.298 C62.574,88.298 62.090,88.166 61.675,87.902 C60.313,87.036 34.104,70.341 21.788,52.896 L6.561,52.896 C5.133,52.896 3.978,51.727 3.978,50.295 C3.978,48.850 5.129,47.690 6.561,47.690 L18.628,47.690 C17.406,45.362 16.439,43.046 15.935,40.787 C15.065,38.154 14.591,35.178 14.591,32.189 C14.591,21.757 20.233,12.130 29.326,7.084 C33.536,4.739 38.298,3.509 43.082,3.509 C50.599,3.509 57.730,6.466 63.044,11.713 C68.354,6.466 75.469,3.509 82.986,3.509 C87.787,3.509 92.538,4.739 96.748,7.084 C105.841,12.145 111.491,21.766 111.491,32.189 C111.491,35.178 111.015,38.146 110.088,41.033 C109.583,43.302 108.598,45.632 107.359,47.983 L124.379,47.983 C125.799,47.975 126.964,49.139 126.964,50.576 ZM24.586,47.690 L49.540,47.690 C50.406,47.690 51.208,48.132 51.696,48.850 L57.158,57.082 L74.074,31.221 C74.611,30.397 75.576,29.950 76.544,30.063 C77.512,30.172 78.333,30.837 78.669,31.757 L84.533,47.975 L101.356,47.975 C103.145,45.133 104.499,42.336 105.094,39.659 C105.919,37.056 106.309,34.629 106.309,32.181 C106.309,23.637 101.684,15.759 94.245,11.629 C90.811,9.714 86.908,8.712 82.978,8.712 C76.018,8.712 69.478,11.811 65.032,17.212 C64.540,17.808 63.813,18.155 63.040,18.155 C62.272,18.155 61.544,17.808 61.050,17.212 C56.588,11.814 50.032,8.712 43.074,8.712 C39.144,8.712 35.263,9.714 31.818,11.629 C24.377,15.768 19.755,23.642 19.755,32.181 C19.755,34.620 20.145,37.048 20.906,39.397 C21.507,42.082 22.834,44.875 24.586,47.690 ZM97.610,53.185 L82.715,53.185 C81.632,53.185 80.659,52.492 80.286,51.467 L75.567,38.416 L59.343,63.233 C58.865,63.959 58.048,64.397 57.191,64.405 C57.182,64.405 57.182,64.405 57.178,64.405 C56.319,64.405 55.511,63.967 55.028,63.249 L48.166,52.904 L28.279,52.904 C39.044,66.280 57.827,79.155 63.044,82.594 C68.239,79.159 86.851,66.403 97.610,53.185 Z"></path>
  </symbol>
  <symbol xmlns="http://www.w3.org/2000/svg" xmlns:xlink="http://www.w3.org/1999/xlink" viewBox="0 0 90px 105px" id="brain">
    <path fill-rule="evenodd" d="M89.012,65.619 C88.584,67.168 87.862,68.553 86.930,69.812 C87.099,71.580 87.311,79.883 77.269,87.501 C73.427,90.421 69.814,94.670 66.523,100.124 L66.198,100.508 C65.987,100.686 61.720,104.171 56.608,104.174 C55.649,104.174 54.657,104.049 53.654,103.749 C50.106,102.713 47.273,99.788 45.185,95.084 C43.094,99.788 40.265,102.713 36.715,103.749 C35.715,104.049 34.722,104.174 33.760,104.174 C28.650,104.174 24.381,100.686 24.174,100.508 L23.850,100.124 C20.558,94.668 16.942,90.416 13.105,87.501 C3.047,79.871 3.264,71.566 3.438,69.808 C2.516,68.550 1.792,67.168 1.356,65.619 C-0.512,58.898 2.990,51.889 3.546,50.838 C1.293,36.786 6.999,32.094 8.976,30.912 C8.207,21.719 13.315,17.795 14.976,16.777 C15.114,15.092 15.592,13.508 16.426,12.047 C19.640,6.465 26.817,4.667 27.839,4.434 C30.198,1.939 32.719,0.655 35.370,0.655 L35.511,0.657 C40.070,0.733 43.551,4.550 45.199,6.759 C46.847,4.550 50.329,0.733 54.886,0.657 L55.027,0.655 C57.681,0.655 60.200,1.939 62.561,4.434 C63.582,4.667 70.764,6.465 73.970,12.047 C74.805,13.508 75.274,15.092 75.421,16.777 C77.084,17.795 82.190,21.719 81.422,30.915 C83.410,32.097 89.103,36.792 86.850,50.841 C87.416,51.904 90.912,58.907 89.012,65.619 ZM43.451,9.504 C42.620,8.231 39.410,3.752 35.454,3.691 L35.376,3.687 C32.691,3.687 30.018,5.768 27.445,9.878 C27.000,10.591 26.066,10.791 25.375,10.344 C24.829,9.993 24.595,9.351 24.724,8.749 C22.696,9.707 20.354,11.245 19.025,13.578 C17.736,15.833 17.583,18.541 18.570,21.634 C18.826,22.434 18.400,23.294 17.607,23.552 L17.148,23.625 C16.511,23.625 15.919,23.215 15.718,22.573 C15.472,21.811 15.337,21.080 15.202,20.348 C12.987,22.371 9.627,27.568 14.019,38.817 C14.325,39.593 13.946,40.480 13.174,40.791 L12.618,40.896 C12.024,40.896 11.456,40.535 11.222,39.934 C10.423,37.873 9.880,36.001 9.508,34.259 C7.552,36.055 4.302,41.064 7.132,53.490 C7.318,54.310 6.817,55.130 6.006,55.318 L5.669,55.356 L4.972,55.160 C3.488,59.404 2.164,67.013 9.537,71.191 C10.262,71.604 10.520,72.532 10.110,73.263 C9.835,73.763 9.325,74.042 8.798,74.042 L8.066,73.855 C7.522,73.543 7.062,73.186 6.579,72.838 C7.078,75.759 8.864,80.471 14.913,85.063 C19.000,88.170 22.826,92.622 26.274,98.289 C27.217,99.000 31.634,102.095 35.914,100.823 C39.121,99.880 41.652,96.683 43.457,91.319 L43.451,9.504 ZM85.405,55.187 L84.733,55.369 L84.395,55.330 C83.586,55.137 83.084,54.322 83.269,53.502 C86.096,41.079 82.847,36.073 80.894,34.276 C80.518,36.017 79.985,37.889 79.175,39.947 C78.941,40.546 78.377,40.909 77.779,40.909 L77.228,40.802 C76.457,40.495 76.078,39.608 76.383,38.829 C80.777,27.577 77.410,22.384 75.198,20.359 C75.063,21.089 74.929,21.824 74.682,22.585 C74.474,23.227 73.890,23.637 73.251,23.637 L72.794,23.565 C72.005,23.306 71.573,22.448 71.829,21.647 C72.817,18.556 72.665,15.844 71.374,13.589 C70.043,11.260 67.711,9.726 65.679,8.763 C65.802,9.366 65.573,10.009 65.028,10.359 C64.338,10.809 63.403,10.605 62.957,9.893 C60.376,5.788 57.710,3.702 55.021,3.702 L54.942,3.705 C51.349,3.763 48.141,7.636 46.950,9.510 L46.950,91.328 C48.763,96.695 51.302,99.889 54.511,100.828 C58.787,102.090 63.192,99.009 64.130,98.295 C67.579,92.624 71.404,88.173 75.492,85.063 C81.539,80.477 83.331,75.764 83.821,72.850 C83.343,73.195 82.885,73.555 82.342,73.864 L81.609,74.055 C81.084,74.055 80.571,73.775 80.296,73.276 C79.888,72.538 80.149,71.610 80.870,71.200 C83.621,69.645 85.398,67.489 86.143,64.795 C87.099,61.351 86.272,57.694 85.405,55.187 ZM79.973,62.915 L79.958,63.237 C79.891,63.671 78.331,73.900 72.066,74.748 L71.864,74.759 C71.125,74.759 70.479,74.203 70.377,73.439 C70.271,72.604 70.852,71.839 71.668,71.726 C74.934,71.286 76.600,65.252 76.970,62.945 C76.284,52.285 80.031,48.351 80.196,48.186 C80.782,47.593 81.735,47.593 82.319,48.186 C82.900,48.774 82.906,49.727 82.334,50.324 C82.258,50.414 79.357,53.752 79.973,62.915 ZM71.477,49.324 C71.333,49.335 69.397,49.173 67.353,54.090 C67.207,54.447 65.808,57.712 62.939,58.568 C62.564,58.681 62.107,58.764 61.585,58.764 C60.623,58.764 59.458,58.479 58.159,57.569 C57.473,57.090 57.309,56.142 57.778,55.452 C58.247,54.756 59.189,54.584 59.863,55.065 C60.699,55.654 61.420,55.836 62.080,55.648 C63.353,55.267 64.315,53.543 64.582,52.915 C67.808,45.141 71.896,46.262 72.354,46.415 C73.134,46.680 73.562,47.541 73.304,48.342 C73.046,49.112 72.254,49.551 71.477,49.324 ZM65.250,47.590 C65.588,48.357 65.245,49.258 64.488,49.600 L63.884,49.730 C63.309,49.730 62.758,49.395 62.511,48.826 C60.945,45.254 62.591,38.978 62.781,38.278 L62.934,37.912 C66.881,31.153 61.385,24.204 61.329,24.137 C61.021,23.759 60.951,23.285 61.051,22.844 C60.535,23.439 59.980,24.040 59.338,24.645 C59.045,24.916 58.681,25.051 58.317,25.051 C57.913,25.051 57.514,24.886 57.215,24.563 C56.652,23.945 56.690,22.983 57.297,22.411 C60.030,19.848 61.326,17.428 61.039,15.423 C60.684,12.927 58.018,11.510 57.989,11.495 C57.250,11.117 56.948,10.204 57.317,9.455 C57.690,8.705 58.590,8.397 59.332,8.773 C59.502,8.857 63.438,10.896 64.013,14.993 C64.321,17.198 63.588,19.484 61.863,21.824 C62.470,21.537 63.209,21.664 63.649,22.213 C63.931,22.559 70.424,30.773 65.623,39.280 C65.028,41.572 64.423,45.698 65.250,47.590 ZM57.268,40.573 C57.584,41.354 57.221,42.243 56.455,42.562 L55.883,42.677 C55.285,42.677 54.734,42.325 54.499,41.741 C50.179,31.162 53.918,16.364 54.083,15.740 C54.288,14.929 55.100,14.424 55.907,14.656 C56.710,14.865 57.191,15.696 56.980,16.513 C56.951,16.655 53.338,30.952 57.268,40.573 ZM57.065,48.816 C57.860,48.707 58.640,49.276 58.763,50.111 C58.875,50.942 58.300,51.712 57.482,51.831 C57.212,51.867 56.282,51.986 55.103,51.989 C52.426,51.989 48.411,51.387 47.475,47.903 C47.261,47.093 47.727,46.256 48.534,46.034 C49.334,45.823 50.158,46.290 50.376,47.102 C50.956,49.246 55.795,49.002 57.065,48.816 ZM58.781,80.555 C59.573,80.430 60.362,80.989 60.494,81.821 C60.623,82.648 60.065,83.427 59.250,83.558 C58.986,83.600 53.569,84.593 52.112,90.201 C51.939,90.885 51.329,91.337 50.657,91.337 L50.276,91.284 C49.478,91.069 49.003,90.240 49.211,89.428 C51.179,81.854 58.467,80.605 58.781,80.555 ZM56.203,93.965 C59.992,94.864 65.969,87.495 68.849,82.672 C69.280,81.955 70.213,81.729 70.911,82.160 C71.623,82.595 71.849,83.528 71.415,84.254 C70.594,85.637 63.555,97.078 56.807,97.078 C56.382,97.078 55.968,97.028 55.549,96.942 C54.737,96.755 54.226,95.946 54.411,95.120 C54.590,94.299 55.391,93.790 56.203,93.965 ZM71.104,81.447 C65.831,81.161 62.500,79.419 61.197,76.249 C60.646,74.902 60.579,73.471 60.763,72.077 C59.549,72.728 58.001,73.329 56.394,73.329 C56.083,73.329 55.772,73.314 55.461,73.263 C53.836,73.013 52.461,72.068 51.490,70.531 C51.033,69.823 51.244,68.880 51.939,68.425 C52.628,67.970 53.563,68.176 54.012,68.883 C54.523,69.689 55.126,70.130 55.907,70.254 C57.857,70.557 60.362,68.862 61.174,68.185 C61.444,67.959 61.767,67.869 62.080,67.858 C62.640,66.719 63.274,65.752 63.796,65.170 C69.779,58.380 70.019,52.799 70.019,52.741 C70.049,51.907 70.714,51.222 71.562,51.265 C72.383,51.286 73.040,51.974 73.022,52.811 C73.017,53.079 72.826,59.504 66.037,67.197 C64.781,68.633 62.869,72.419 63.966,75.090 C64.984,77.575 68.494,78.268 71.257,78.416 C72.084,78.462 72.720,79.178 72.682,80.001 C72.635,80.819 71.978,81.450 71.180,81.450 L71.104,81.447 ZM39.743,91.331 C39.079,91.331 38.469,90.879 38.293,90.195 C36.823,84.518 31.229,83.564 31.166,83.558 C30.349,83.427 29.788,82.648 29.917,81.815 C30.046,80.983 30.817,80.424 31.631,80.549 C31.940,80.599 39.233,81.848 41.190,89.422 C41.403,90.228 40.929,91.064 40.124,91.278 L39.743,91.331 ZM32.929,51.829 C32.106,51.709 31.538,50.939 31.649,50.108 C31.766,49.276 32.548,48.726 33.347,48.813 C35.307,49.092 39.508,49.039 40.030,47.099 C40.253,46.293 41.079,45.820 41.878,46.030 C42.680,46.253 43.145,47.087 42.932,47.900 C41.998,51.384 37.980,51.986 35.307,51.986 C34.118,51.986 33.199,51.867 32.929,51.829 ZM34.526,42.674 L33.952,42.560 C33.190,42.240 32.826,41.351 33.138,40.570 C37.076,30.930 33.459,16.653 33.430,16.507 C33.213,15.693 33.694,14.859 34.499,14.650 C35.307,14.411 36.118,14.917 36.328,15.733 C36.485,16.358 40.233,31.156 35.914,41.735 C35.674,42.322 35.112,42.674 34.526,42.674 ZM32.427,11.492 C32.358,11.529 29.703,12.947 29.367,15.441 C29.097,17.445 30.387,19.856 33.115,22.411 C33.719,22.981 33.757,23.945 33.193,24.563 C32.898,24.886 32.499,25.051 32.091,25.051 C31.725,25.051 31.361,24.916 31.069,24.645 C30.424,24.043 29.871,23.439 29.361,22.840 C29.456,23.282 29.385,23.756 29.081,24.134 C28.857,24.418 23.553,31.186 27.478,37.909 L27.631,38.278 C27.826,38.984 29.467,45.254 27.902,48.826 C27.656,49.395 27.103,49.730 26.533,49.730 L25.922,49.600 C25.166,49.258 24.823,48.360 25.160,47.590 C26.078,45.488 25.220,40.962 24.787,39.277 C19.988,30.773 26.475,22.557 26.757,22.210 C27.204,21.658 27.937,21.534 28.544,21.820 C26.823,19.482 26.088,17.195 26.400,14.990 C26.977,10.893 30.911,8.854 31.078,8.769 C31.820,8.392 32.722,8.703 33.094,9.452 C33.463,10.201 33.163,11.114 32.427,11.492 ZM25.836,52.903 C26.103,53.543 27.057,55.267 28.333,55.642 C28.986,55.838 29.719,55.642 30.550,55.062 C31.226,54.584 32.166,54.750 32.634,55.449 C33.109,56.136 32.940,57.087 32.253,57.563 C30.955,58.476 29.785,58.761 28.829,58.761 C28.307,58.761 27.848,58.675 27.472,58.562 C24.604,57.699 23.208,54.444 23.057,54.075 C20.948,49.011 18.916,49.310 18.925,49.322 C18.129,49.577 17.328,49.145 17.071,48.348 C16.811,47.546 17.277,46.674 18.063,46.407 C18.517,46.262 22.613,45.141 25.836,52.903 ZM20.025,73.439 C19.922,74.203 19.277,74.759 18.538,74.759 L18.334,74.741 C12.069,73.900 10.505,63.671 10.441,63.237 L10.426,62.909 C11.050,53.674 8.093,50.355 8.062,50.321 C7.508,49.716 7.522,48.752 8.110,48.177 C8.697,47.598 9.631,47.601 10.204,48.186 C10.369,48.351 14.117,52.285 13.435,62.945 C13.826,65.387 15.460,71.286 18.733,71.726 C19.555,71.839 20.129,72.604 20.025,73.439 ZM19.156,78.426 C21.919,78.277 25.427,77.575 26.447,75.098 C27.547,72.431 25.639,68.645 24.378,67.203 C17.592,59.508 17.394,53.089 17.388,52.820 C17.375,51.977 18.033,51.286 18.859,51.268 C19.733,51.362 20.372,51.916 20.391,52.750 C20.397,52.836 20.649,58.404 26.619,65.175 C27.135,65.767 27.769,66.727 28.333,67.869 C28.656,67.878 28.971,67.964 29.235,68.190 C30.049,68.869 32.568,70.573 34.508,70.260 C35.284,70.135 35.886,69.707 36.403,68.892 C36.848,68.190 37.781,67.988 38.476,68.434 C39.172,68.889 39.373,69.832 38.926,70.540 C37.952,72.071 36.577,73.020 34.952,73.270 C34.640,73.317 34.330,73.338 34.018,73.338 C32.415,73.338 30.863,72.734 29.650,72.086 C29.829,73.480 29.772,74.917 29.214,76.261 C27.911,79.428 24.579,81.173 19.309,81.456 L19.231,81.467 C18.435,81.467 17.778,80.838 17.736,80.020 C17.693,79.187 18.331,78.473 19.156,78.426 ZM19.492,82.160 C20.205,81.727 21.123,81.953 21.555,82.672 C24.435,87.495 30.396,94.852 34.202,93.965 C35.015,93.790 35.815,94.299 35.992,95.120 C36.167,95.943 35.662,96.755 34.848,96.939 C34.430,97.028 34.016,97.076 33.593,97.076 C26.848,97.076 19.805,85.634 18.982,84.251 C18.555,83.525 18.784,82.597 19.492,82.160 Z"></path>
  </symbol>
  <symbol xmlns="http://www.w3.org/2000/svg" xmlns:xlink="http://www.w3.org/1999/xlink" viewBox="0 0 49px 131px" id="knee">
    <path fill-rule="evenodd" d="M41.202,64.930 C39.096,66.219 36.691,66.944 34.270,67.036 C30.853,67.181 27.469,66.018 24.803,63.845 C22.286,66.197 19.038,67.570 15.577,67.691 L15.076,67.702 C12.805,67.702 10.549,67.140 8.512,66.071 C3.803,63.615 0.772,58.707 0.583,53.278 C0.538,51.715 0.728,50.154 1.150,48.650 C1.616,45.998 3.625,43.738 5.752,41.344 C7.433,39.446 9.179,37.490 10.100,35.243 C12.478,29.552 13.641,18.365 13.479,2.899 C13.466,1.557 14.511,0.456 15.816,0.442 C17.230,0.490 18.198,1.499 18.202,2.841 C18.372,19.217 17.105,30.759 14.443,37.166 C13.187,40.168 11.084,42.536 9.225,44.621 C7.568,46.491 6.007,48.249 5.731,49.764 C5.395,51.010 5.277,52.056 5.302,53.117 C5.420,56.770 7.471,60.079 10.651,61.744 C12.117,62.512 13.750,62.907 15.403,62.832 C18.324,62.741 21.020,61.307 22.813,58.929 C23.242,58.358 23.895,58.016 24.596,57.986 C25.257,57.963 25.970,58.257 26.443,58.799 C28.390,61.048 31.139,62.216 34.104,62.177 C35.745,62.119 37.363,61.626 38.785,60.756 C41.841,58.872 43.669,55.430 43.549,51.761 C43.516,50.722 43.321,49.683 42.960,48.699 C42.554,47.135 41.053,45.631 39.453,44.049 C37.520,42.131 35.323,39.951 33.996,36.999 C31.159,30.689 29.816,19.200 29.999,2.850 C30.015,1.503 30.853,0.465 32.387,0.452 C33.697,0.465 34.734,1.566 34.721,2.908 C34.547,18.304 35.783,29.401 38.283,34.959 C39.249,37.082 41.024,38.854 42.728,40.552 C44.826,42.628 46.800,44.592 47.464,47.257 C47.920,48.503 48.218,50.045 48.272,51.602 C48.446,57.036 45.730,62.141 41.202,64.930 ZM3.867,69.592 C4.269,69.089 4.844,68.764 5.480,68.709 C6.100,68.653 6.741,68.858 7.220,69.276 C8.014,69.972 8.818,70.540 9.621,70.958 C11.302,71.837 13.183,72.311 15.063,72.311 L15.517,72.298 C18.349,72.204 21.088,71.056 23.190,69.071 C24.040,68.257 25.356,68.227 26.257,68.961 C28.381,70.693 31.052,71.658 33.756,71.658 L34.199,71.641 C36.210,71.572 38.196,70.975 39.950,69.908 C40.543,69.541 41.095,69.097 41.613,68.632 C42.094,68.201 42.728,67.996 43.359,68.047 C43.989,68.103 44.578,68.415 44.984,68.926 C47.024,71.487 48.160,74.577 48.268,77.854 C48.314,79.421 48.123,80.979 47.704,82.486 C47.236,85.136 45.224,87.393 43.110,89.783 C41.426,91.683 39.672,93.646 38.752,95.882 C36.376,101.575 35.211,112.761 35.372,128.228 C35.385,129.572 34.340,130.673 33.034,130.682 L33.009,130.682 C31.711,130.682 30.654,129.611 30.641,128.284 C30.471,111.912 31.740,100.368 34.402,93.962 C35.654,90.957 37.761,88.593 39.618,86.497 C41.273,84.632 42.836,82.874 43.110,81.363 C43.450,80.117 43.566,79.071 43.541,78.009 C43.495,76.583 43.159,75.205 42.562,73.954 L42.372,74.065 C39.925,75.563 37.155,76.395 34.340,76.498 L33.817,76.511 L33.813,76.511 C30.637,76.511 27.544,75.597 24.896,73.898 C22.209,75.896 18.982,77.044 15.637,77.155 L15.102,77.164 C12.434,77.164 9.816,76.519 7.471,75.286 C7.077,75.077 6.685,74.851 6.303,74.594 C5.598,76.071 5.250,77.701 5.302,79.362 C5.335,80.398 5.530,81.435 5.891,82.421 C6.300,83.987 7.798,85.486 9.395,87.074 C11.331,88.993 13.531,91.170 14.856,94.124 C17.692,100.431 19.033,111.921 18.851,128.274 C18.843,129.611 17.793,130.673 16.493,130.673 L16.469,130.673 C15.161,130.665 14.122,129.564 14.134,128.219 C14.308,112.826 13.073,101.729 10.570,96.168 C9.606,94.047 7.831,92.271 6.121,90.573 C4.031,88.490 2.054,86.531 1.392,83.872 C0.936,82.626 0.639,81.082 0.583,79.528 C0.478,75.922 1.641,72.392 3.867,69.592 Z"></path>
  </symbol>
  <symbol xmlns="http://www.w3.org/2000/svg" xmlns:xlink="http://www.w3.org/1999/xlink" viewBox="0 0 84px 93px" id="human-bones">
    <path fill-rule="evenodd" d="M82.957,64.855 L82.947,64.822 C83.559,61.448 83.261,57.974 82.037,54.767 L81.998,54.704 C82.050,54.139 82.079,53.566 82.079,52.987 C82.079,49.646 81.188,46.394 79.562,43.564 C79.358,39.861 77.748,36.303 74.937,33.363 C75.358,32.578 75.607,31.749 75.607,30.881 C75.607,29.429 74.963,27.378 72.171,25.438 C72.870,24.562 73.272,23.589 73.272,22.513 C73.272,19.652 70.480,17.236 65.531,15.724 C65.972,14.925 66.270,14.090 66.270,13.202 C66.270,10.082 63.407,7.350 58.749,5.875 C58.160,2.535 53.774,0.002 48.213,0.002 C47.393,0.002 46.733,0.668 46.733,1.500 C46.733,2.333 47.393,3.002 48.213,3.002 C52.576,3.002 55.834,4.878 55.892,6.579 L55.866,6.633 L55.857,6.819 C55.627,8.475 52.453,10.254 48.206,10.254 C47.458,10.254 46.752,10.149 46.049,10.046 C45.463,8.432 43.947,7.270 42.153,7.270 C40.355,7.270 38.836,8.436 38.248,10.046 C37.549,10.149 36.836,10.254 36.093,10.254 C31.693,10.254 28.402,8.343 28.402,6.633 C28.402,4.923 31.693,3.012 36.093,3.012 C36.912,3.012 37.573,2.339 37.573,1.510 C37.573,0.681 36.909,0.012 36.093,0.012 C30.538,0.012 26.150,2.541 25.564,5.881 C20.851,7.360 18.038,10.052 18.038,13.209 C18.038,14.097 18.339,14.932 18.775,15.731 C13.826,17.249 11.037,19.668 11.037,22.520 C11.037,23.595 11.442,24.569 12.142,25.444 C9.379,27.368 8.702,29.404 8.702,30.884 C8.702,31.756 8.950,32.588 9.376,33.376 C7.550,35.282 6.214,37.409 5.452,39.725 C5.034,40.985 4.828,42.285 4.762,43.592 L4.619,43.756 C3.053,46.546 2.227,49.738 2.227,52.994 C2.227,53.566 2.258,54.132 2.307,54.691 C1.202,57.550 0.885,60.612 1.239,63.645 L1.160,63.822 C0.446,66.900 0.732,70.466 1.952,74.394 L1.886,74.700 C1.856,77.012 2.155,79.281 2.768,81.469 C4.188,86.521 7.163,90.389 10.924,92.076 C12.266,92.678 13.673,92.984 15.073,92.984 C16.635,92.984 18.197,92.602 19.674,91.866 C24.349,89.510 26.443,83.610 27.703,79.689 C29.321,77.193 30.355,74.466 31.112,72.446 C31.403,71.664 31.659,70.973 31.902,70.440 L32.035,69.854 C32.849,68.302 33.494,66.789 34.007,65.553 C34.329,64.776 34.611,64.085 34.877,63.552 L34.998,63.099 C35.583,62.503 36.103,61.974 36.548,61.579 L36.906,61.112 C37.261,60.993 37.618,60.875 37.970,60.743 L37.970,60.961 C37.970,63.296 39.837,65.190 42.143,65.190 C44.440,65.190 46.308,63.299 46.308,60.961 L46.308,60.743 C46.655,60.875 47.014,60.993 47.374,61.112 L47.724,61.579 C48.171,61.974 48.689,62.503 49.272,63.099 L49.395,63.552 C49.667,64.085 49.952,64.776 50.276,65.562 C50.781,66.795 51.432,68.302 52.245,69.854 L52.378,70.440 C52.614,70.980 52.873,71.664 53.165,72.446 C53.923,74.472 54.959,77.202 56.579,79.696 C57.835,83.617 59.928,89.510 64.598,91.866 C66.079,92.602 67.643,92.984 69.207,92.984 C70.610,92.984 72.015,92.678 73.363,92.073 C77.123,90.385 80.093,86.518 81.515,81.469 C82.500,77.979 82.917,75.078 82.759,72.844 L82.743,72.789 C83.335,70.184 83.410,67.479 82.957,64.855 ZM59.293,78.357 L59.202,78.067 L58.989,77.397 C59.591,77.748 60.206,78.081 60.893,78.347 C62.736,79.058 64.647,79.413 66.561,79.413 C68.796,79.413 71.028,78.926 73.126,77.966 C75.876,76.696 78.150,74.663 79.889,72.140 C79.756,72.749 79.611,73.354 79.413,73.946 C78.124,77.841 75.546,80.920 72.333,82.393 C69.641,83.617 66.678,83.666 63.970,82.498 C61.975,81.643 60.479,80.104 59.293,78.357 ZM12.933,37.175 L13.165,36.966 C16.904,39.145 22.697,40.501 29.444,40.501 C32.415,40.501 35.317,40.189 37.988,39.655 L37.988,46.932 C35.155,47.568 31.978,47.922 28.713,47.922 C17.908,47.922 9.832,44.206 9.832,40.877 C9.832,39.658 10.933,38.341 12.933,37.175 ZM46.331,39.658 C49.000,40.193 51.902,40.503 54.875,40.503 C61.573,40.503 67.329,39.169 71.070,37.020 C73.230,38.213 74.487,39.607 74.487,40.880 C74.487,44.206 66.406,47.926 55.607,47.926 C52.342,47.926 49.162,47.577 46.331,46.936 L46.331,39.658 ZM79.122,52.987 C79.122,61.378 72.754,68.082 64.624,68.250 C59.588,68.453 55.653,65.171 52.812,62.382 C54.017,62.533 55.232,62.625 56.469,62.625 C66.989,62.625 75.883,57.050 78.681,49.448 C78.940,50.606 79.122,51.777 79.122,52.987 ZM79.319,66.963 C77.946,70.717 75.313,73.657 71.899,75.229 C68.725,76.686 65.194,76.798 61.946,75.541 C58.250,74.110 56.041,70.835 54.526,67.750 C57.181,69.670 60.446,71.262 64.372,71.262 L64.689,71.255 C71.614,71.111 77.463,67.012 80.278,61.066 C80.320,63.046 80.019,65.046 79.319,66.963 ZM71.993,32.493 L71.925,32.540 L71.847,32.679 C69.641,35.205 63.096,37.499 54.875,37.499 C51.870,37.499 48.951,37.168 46.331,36.593 L46.331,30.206 C48.721,30.624 51.299,30.870 53.949,30.870 C59.883,30.870 66.049,29.683 69.774,27.441 C71.624,28.526 72.644,29.738 72.644,30.875 C72.650,31.406 72.414,31.958 71.993,32.493 ZM70.318,22.510 C70.318,24.693 63.938,27.862 53.942,27.862 C51.270,27.862 48.676,27.604 46.328,27.157 L46.328,21.208 C47.873,21.487 49.505,21.635 51.157,21.635 C56.210,21.635 60.576,20.298 63.306,18.226 C67.895,19.382 70.318,21.217 70.318,22.510 ZM58.237,8.843 C61.321,9.890 63.313,11.560 63.313,13.198 C63.313,13.887 62.927,14.597 62.266,15.262 L61.696,15.754 C59.688,17.361 55.925,18.630 51.157,18.630 C49.479,18.630 47.850,18.448 46.328,18.139 L46.328,13.084 C46.953,13.151 47.562,13.251 48.216,13.251 C52.928,13.248 56.796,11.429 58.237,8.843 ZM26.095,8.847 C27.536,11.432 31.400,13.251 36.106,13.251 C36.760,13.251 37.367,13.151 37.994,13.084 L37.994,18.139 C36.475,18.451 34.843,18.630 33.165,18.630 C26.004,18.630 21.013,15.764 21.013,13.198 C21.013,11.574 23.019,9.893 26.095,8.847 ZM21.013,18.226 C23.743,20.295 28.108,21.639 33.165,21.639 C34.820,21.639 36.448,21.490 37.994,21.211 L37.994,27.163 C35.646,27.606 33.052,27.866 30.379,27.866 C23.398,27.866 18.243,26.316 15.733,24.640 L15.126,24.239 C14.399,23.645 14.009,23.050 14.009,22.513 C14.006,21.260 16.227,19.428 21.013,18.226 ZM14.569,27.462 C18.300,29.698 24.453,30.875 30.379,30.875 C33.026,30.875 35.606,30.628 37.994,30.210 L37.994,36.596 C35.374,37.172 32.456,37.502 29.450,37.502 C19.278,37.502 11.673,34.002 11.673,30.877 C11.673,29.750 12.744,28.536 14.569,27.462 ZM20.357,82.498 C17.649,83.669 14.684,83.623 11.991,82.396 C8.778,80.920 6.198,77.841 4.914,73.953 C4.705,73.314 4.559,72.710 4.404,72.098 C6.145,74.637 8.433,76.690 11.199,77.966 C13.301,78.933 15.531,79.413 17.766,79.413 C19.677,79.413 21.589,79.064 23.424,78.351 C24.111,78.084 24.737,77.752 25.342,77.397 L25.126,78.071 L25.032,78.354 C23.845,80.104 22.349,81.643 20.357,82.498 ZM19.952,68.253 L19.703,68.250 C11.573,68.082 5.202,61.375 5.202,52.987 C5.202,51.771 5.362,50.567 5.630,49.402 C8.410,57.030 17.311,62.628 27.858,62.628 C29.089,62.628 30.307,62.539 31.510,62.388 C28.728,65.098 24.903,68.253 19.952,68.253 ZM19.633,71.255 L19.949,71.255 C23.878,71.255 27.139,69.664 29.798,67.743 C28.279,70.835 26.070,74.110 22.373,75.538 C19.133,76.794 15.604,76.683 12.423,75.226 C9.013,73.650 6.376,70.717 5.003,66.960 C4.303,65.039 3.999,63.036 4.044,61.052 C6.860,67.006 12.712,71.111 19.633,71.255 ZM18.379,89.159 C16.354,90.182 14.193,90.238 12.142,89.316 C9.388,88.083 7.160,85.248 5.908,81.485 C7.316,83.037 8.958,84.294 10.781,85.136 C12.559,85.945 14.433,86.353 16.303,86.353 C18.067,86.353 19.829,85.991 21.510,85.268 C21.855,85.120 22.154,84.919 22.478,84.735 C21.447,86.616 20.137,88.274 18.379,89.159 ZM27.855,59.612 C16.728,59.612 7.670,52.770 7.670,44.353 L7.720,43.733 C10.271,47.983 18.446,50.928 28.718,50.928 C31.950,50.928 35.108,50.583 37.991,49.991 L37.991,57.540 C34.925,58.888 31.434,59.612 27.855,59.612 ZM46.331,49.994 C49.217,50.590 52.372,50.928 55.607,50.928 C65.570,50.928 73.557,48.162 76.362,44.120 L76.641,44.534 C76.511,52.869 67.520,59.619 56.462,59.619 C52.886,59.619 49.389,58.895 46.328,57.550 L46.331,49.994 L46.331,49.994 ZM72.190,89.316 C70.137,90.240 67.976,90.182 65.943,89.159 C64.184,88.274 62.876,86.616 61.845,84.741 C62.176,84.919 62.470,85.120 62.817,85.274 C64.494,85.991 66.263,86.356 68.022,86.356 C69.891,86.356 71.763,85.948 73.544,85.136 C75.371,84.300 77.010,83.044 78.415,81.492 C77.172,85.248 74.940,88.083 72.190,89.316 Z"></path>
  </symbol>
</svg>